# xmcd
#
# Track frame offsets:
#       150
#       10575
#       18525
#       28875
#       44700
#       63375
#       78450
#       91875
#
# Disc length: 1384 seconds
#
# Revision: 1
# Processed by: cddbd v1.5.2PL0 Copyright (c) Steve Scherf et al.
# Submitted via: FreeDbEdit v0.1
#
DISCID=5f056608
DTITLE=Various Artist - A Country Christmas
DYEAR=1900
DGENRE=Country
TTITLE0=Willie Nelson - Pretty Paper
TTITLE1=Charley Pride - Let It Snow, Let It Snow
TTITLE2=Leon Everette - Every Time I Hear Blue Christmas
TTITLE3=Louise Mandrell - Christmas Is Just a Song This Year
TTITLE4=Razzy Bailey - Peace on Earth
TTITLE5=Alabama - Christmas in Dixie
TTITLE6=Jim Ed Brown - Fall Softly Snow
TTITLE7=Steve Wariner - Noel, Noel
EXTD=
EXTT0=
EXTT1=
EXTT2=
EXTT3=
EXTT4=
EXTT5=
EXTT6=
EXTT7=
PLAYORDER=
